<?xml version="1.0" encoding="utf-8"?>
<!-- Generator: Adobe Illustrator 15.1.0, SVG Export Plug-In  -->
<!DOCTYPE svg PUBLIC "-//W3C//DTD SVG 1.1//EN" "http://www.w3.org/Graphics/SVG/1.1/DTD/svg11.dtd" [
	<!ENTITY ns_flows "http://ns.adobe.com/Flows/1.0/">
]>
<svg version="1.1"
	 xmlns="http://www.w3.org/2000/svg" xmlns:xlink="http://www.w3.org/1999/xlink" xmlns:a="http://ns.adobe.com/AdobeSVGViewerExtensions/3.0/"
	 x="0px" y="0px" width="595px" height="350px" viewBox="-143.797 -70.945 595 350"
	 overflow="visible" enable-background="new -143.797 -70.945 595 350" xml:space="preserve">
<defs>
</defs>
<path fill="#666666" d="M203.086,70.25c-9.308,0-9.308,7.722-9.519,10.762h18.405C211.973,77.565,210.91,70.25,203.086,70.25z"/>
<path fill="#666666" d="M208.372,154.646h-2.641v9.052c0.531,0,1.477,0.435,2.322,0.435c3.592,0,5.717-2.166,5.717-5.194
	C213.771,155.931,211.646,154.646,208.372,154.646z"/>
<path fill="#666666" d="M134.351,158.938c0-3.007-2.11-4.292-5.182-4.292h-2.854v8.616h2.951
	C132.446,163.262,134.351,161.53,134.351,158.938z"/>
<path fill="#666666" d="M87.819,71.095c-8.564,0-9.729,7.315-9.729,16.796c0,9.486,1.164,15.916,9.729,15.916
	c8.565,0,9.73-6.43,9.73-15.916C97.55,78.41,96.385,71.095,87.819,71.095z"/>
<path fill="#666666" d="M156.03,154.212c-4.971,0-7.504,4.726-7.504,9.924c0,4.723,2.642,9.046,7.291,9.046
	c4.871,0,7.505-4.323,7.505-9.484C163.322,158.938,160.998,154.212,156.03,154.212z"/>
<path fill="#666666" d="M0,0v220.109h307.408V0H0z M88.454,113.287H34.099v-68.88h10.463v59.399h25.707
	c-2.225-3.874-3.494-9.486-3.494-15.916c0-16.361,5.608-26.29,21.779-26.29c14.6,0,20.099,10.375,20.099,26.729
	c0,15.082-5.386,24.957-19.88,24.957H88.454z M113.625,174.451c-1.269,0.446-4.014,1.284-6.979,1.284
	c-3.702,0-6.456-0.838-8.782-2.996c-1.898-2.166-3.174-5.17-3.174-8.604c0-6.924,4.666-12.082,12.488-12.082
	c2.529,0,4.856,0.451,5.7,1.284l-0.735,2.158c-1.16-0.446-2.641-0.846-5.076-0.846c-5.602,0-9.203,3.438-9.203,9.047
	c0,5.99,3.493,9.484,8.885,9.484c1.898,0,3.275-0.442,3.912-0.885v-6.446h-4.646v-2.589h7.609V174.451z M135.087,175.292
	c-0.318-0.399-0.836-2.553-1.477-5.601c-0.637-2.991-1.896-4.284-4.658-4.284h-2.637v9.885h-3.072v-22.791
	c1.48,0,3.6-0.451,5.709-0.451c3.176,0,5.299,0.89,6.672,2.162c1.154,0.838,1.799,2.561,1.799,4.323c0,2.995-2.01,5.162-4.449,5.597
	v0.398c1.795,0.438,2.857,2.17,3.486,4.328c0.748,3.438,1.382,5.588,1.698,6.434H135.087z M137.096,114.177h-10.78l-14.486-50.848
	h11.31l8.358,32.322h0.309l8.895-32.322h9.727l8.562,32.322h0.319l8.885-32.322h10.782l-14.172,50.848h-10.891l-8.24-30.17h-0.323
	L137.096,114.177z M155.817,175.735c-6.135,0-10.359-4.728-10.359-11.6c0-7.359,4.541-12.082,10.68-12.082
	c6.339,0,10.364,4.723,10.364,11.644C166.502,171.407,161.739,175.735,155.817,175.735z M192.302,165.855
	c0,6.884-3.699,9.875-8.678,9.875c-4.648,0-8.244-2.549-8.244-9.875v-13.354h2.958v13.354c0,5.152,2.218,7.326,5.399,7.326
	c3.381,0,5.6-2.174,5.6-7.326v-13.354h2.965V165.855z M215.034,163.697c-1.58,1.71-4.124,2.564-7.078,2.564h-2.225v9.03h-3.068
	v-22.791c1.373,0,3.279-0.451,5.709-0.451c2.859,0,5.082,0.89,6.455,2.162c1.26,0.838,2.001,2.561,2.001,4.726
	C216.828,161.089,216.199,162.376,215.034,163.697z M223.386,89.61h-29.818c0,6.04,1.273,15.082,10.364,15.082
	c1.59,0.446,4.024,0.446,6.558,0v8.6h-4.344c-18.177,0.885-23.574-9.485-23.676-27.997c-0.213-14.196,5.499-24.084,20.616-24.084
	c17.771,0,20.3,13.326,20.3,25.799V89.61z M242.733,112.845H231.64V44.374h11.094V112.845z M266.96,112.845h-11.422V44.374h11.422
	V112.845z M289.799,112.845h-12.056v-10.312h12.056V112.845z"/>
</svg>
