<?xml version="1.0" encoding="utf-8"?>
<!-- Generator: Adobe Illustrator 15.1.0, SVG Export Plug-In  -->
<!DOCTYPE svg PUBLIC "-//W3C//DTD SVG 1.1//EN" "http://www.w3.org/Graphics/SVG/1.1/DTD/svg11.dtd" [
	<!ENTITY ns_flows "http://ns.adobe.com/Flows/1.0/">
]>
<svg version="1.1"
	 xmlns="http://www.w3.org/2000/svg" xmlns:xlink="http://www.w3.org/1999/xlink" xmlns:a="http://ns.adobe.com/AdobeSVGViewerExtensions/3.0/"
	 x="0px" y="0px" width="595px" height="350px" viewBox="-153.605 -64.776 595 350"
	 overflow="visible" enable-background="new -153.605 -64.776 595 350" xml:space="preserve">
<defs>
</defs>
<path fill="#666666" d="M65.42,191.89l2.688,1.205l0.02,8.289l6.178-5.508l2.662,1.193l-3.986,8.885l-1.754-0.787l3.367-7.309
	l-0.023-0.012l-6.58,5.867L66.398,203l0.033-8.803l-0.025-0.01l-3.219,7.373l-1.754-0.787L65.42,191.89z"/>
<path fill="#666666" d="M78.535,197.662l1.916,0.717l-1.922,5.15c-0.473,1.266-0.994,2.818,1.498,3.75
	c2.504,0.936,3.129-0.58,3.602-1.846l1.924-5.152l1.916,0.717l-1.941,5.203c-0.564,1.508-1.613,4.16-6.035,2.51
	c-4.41-1.646-3.463-4.336-2.9-5.848L78.535,197.662z"/>
<path fill="#666666" d="M89.055,201.509l1.953,0.609l-2.426,7.76l5.648,1.766l-0.479,1.537l-7.604-2.377L89.055,201.509z"/>
<path fill="#666666" d="M98.33,205.898l-3.529-0.949l0.396-1.473l9.031,2.426l-0.395,1.475l-3.531-0.949l-2.127,7.928l-1.975-0.531
	L98.33,205.898z"/>
<path fill="#666666" d="M105.061,206.031l1.994,0.455l-2.174,9.492l-1.996-0.455L105.061,206.031z"/>
<path fill="#666666" d="M107.781,211.865l4.725,0.939l-0.314,1.58l-4.725-0.939L107.781,211.865z"/>
<path fill="#666666" d="M115.035,208.146l2.021,0.297l-0.799,5.434c-0.193,1.338-0.379,2.963,2.252,3.35
	c2.643,0.389,2.934-1.223,3.131-2.557l0.799-5.436l2.021,0.297l-0.807,5.49c-0.232,1.59-0.701,4.4-5.367,3.715
	c-4.654-0.684-4.293-3.51-4.059-5.102L115.035,208.146z"/>
<path fill="#666666" d="M129.924,209.742c1.494,0.127,4.463,0.652,4.482,3.488l-2.203-0.188c-0.004-0.754-0.615-1.625-2.314-1.77
	c-1.357-0.115-2.293,0.23-2.369,1.141c-0.193,2.285,7.225,0.707,6.873,4.854c-0.213,2.502-2.863,2.934-4.93,2.76
	c-3.494-0.297-4.777-1.789-4.631-3.83l2.203,0.188c-0.057,1.283,0.953,1.984,2.625,2.125c1.238,0.104,2.424-0.164,2.512-1.225
	c0.205-2.406-7.121-0.918-6.783-4.9C125.57,210.224,127.557,209.542,129.924,209.742z"/>
<path fill="#666666" d="M135.986,210.486l8.455,0.225l-0.041,1.527l-6.408-0.172l-0.064,2.455l6.148,0.164l-0.039,1.527
	l-6.152-0.164l-0.07,2.699l6.518,0.174l-0.041,1.527l-8.562-0.229L135.986,210.486z"/>
<path fill="#666666" d="M150.477,210.595l5.99-0.404c2.383-0.16,3.258,1.246,3.363,2.811c0.1,1.484-0.738,3.059-2.932,3.207
	l-3.975,0.268l0.25,3.703l-2.043,0.137L150.477,210.595z M152.822,214.951l3.279-0.221c1.158-0.078,1.764-0.434,1.686-1.59
	c-0.082-1.199-0.945-1.441-1.734-1.389l-3.432,0.232L152.822,214.951z"/>
<path fill="#666666" d="M160.783,209.855l6.115-0.818c2.463-0.328,3.41,0.686,3.613,2.188c0.168,1.258-0.418,2.135-1.285,2.541
	l0.004,0.027c1.182,0.09,1.572,1.055,1.756,2.422c0.062,0.461,0.221,1.541,0.684,2.016l-2.191,0.295
	c-0.186-0.252-0.346-0.727-0.439-1.43c-0.186-1.379-0.504-2.328-1.994-2.129l-3.449,0.461l0.51,3.816l-2.027,0.27L160.783,209.855z
	 M166.896,213.445c1.123-0.152,1.688-0.57,1.543-1.654c-0.135-1-0.85-1.305-1.918-1.16l-3.506,0.469l0.377,2.814L166.896,213.445z"
	/>
<path fill="#666666" d="M171.961,213.263c-0.551-2.684,0.541-5.359,4.574-6.189s6.096,1.197,6.646,3.881
	c0.553,2.686-0.541,5.361-4.574,6.191S172.514,215.949,171.961,213.263z M181.1,211.384c-0.434-2.098-2.014-3.275-4.256-2.816
	c-2.246,0.463-3.23,2.168-2.799,4.268c0.432,2.098,2.012,3.275,4.256,2.814S181.529,213.48,181.1,211.384z"/>
<path fill="#666666" d="M183.355,205.876l5.064-1.402c3.68-1.02,5.168,0.832,5.912,3.514c0.561,2.023,0.355,4.855-2.84,5.74
	l-5.533,1.535L183.355,205.876z M187.521,213.244l2.775-0.768c1.418-0.395,2.803-1.273,2.041-4.02
	c-0.846-3.051-2.828-2.699-3.934-2.395l-2.668,0.742L187.521,213.244z"/>
<path fill="#666666" d="M194.23,202.804l1.934-0.666l1.795,5.193c0.439,1.275,1.027,2.807,3.541,1.938
	c2.527-0.873,2.043-2.439,1.604-3.715l-1.797-5.193l1.934-0.668l1.814,5.246c0.523,1.521,1.404,4.232-3.057,5.773
	c-4.449,1.537-5.43-1.141-5.955-2.662L194.23,202.804z"/>
<path fill="#666666" d="M213.572,199.361c-0.754-1.285-2.209-1.627-3.799-0.969c-1.74,0.721-2.559,2.418-1.588,4.764
	c0.777,1.881,2.613,2.641,4.482,1.869c1.967-0.814,2.068-2.424,1.828-3.432l2.043-0.846c0.477,1.9,0.094,4.291-3.615,5.824
	c-3.254,1.35-5.725-0.23-6.773-2.766c-1.051-2.535-0.48-5.371,3.064-6.836c3.104-1.285,5.396-0.314,6.4,1.545L213.572,199.361z"/>
<path fill="#666666" d="M218.605,194.806l-3.301,1.568l-0.656-1.379l8.447-4.02l0.656,1.381l-3.301,1.568l3.527,7.414l-1.846,0.879
	L218.605,194.806z"/>
<path fill="#666666" d="M51.609,186.806c-5.078-2.822-10.139-5.898-15.055-9.16C18.678,165.792,6.139,153.861,0.258,147.8
	l-0.092-0.095v4.849c6.656,6.596,18.465,17.301,34.504,27.936c5.197,3.447,10.559,6.697,15.932,9.66l1.008,0.557V186.806z"/>
<path fill="#666666" d="M287.789,147.906l-0.307-0.312l-1.219,1.193c-6.02,5.904-18.752,17.527-36.342,29.068
	c-4.92,3.229-9.965,6.277-14.996,9.074v3.9l1.408-0.781c5.186-2.873,10.389-6.016,15.459-9.342
	c17.039-11.178,29.582-22.439,35.996-28.645V147.906z"/>
<path fill="#FFFFFF" d="M287.277,0H0v135c39.48,42.154,89.479,67.352,143.879,67.352c54.182,0,103.996-24.994,143.398-66.834V0z"/>
<path fill="#666666" d="M0.365,1.378v133.16c39.379,41.58,89.25,66.436,143.512,66.436c54.045,0,103.734-24.654,143.035-65.926
	V1.378H0.365z M281.229,132.806c-19.041,19.645-40.143,34.982-62.744,45.605c-23.92,11.242-49.02,16.943-74.607,16.943
	c-25.689,0-50.885-5.746-74.889-17.078c-22.689-10.711-43.855-26.172-62.941-45.973V6.998h275.182V132.806z"/>
<path fill="#666666" d="M22.852,21.671h20.73l3.939,26.165l4.275-26.165h16.365l4.152,26.741l4.672-26.741h47.91
	c6.168,0,15.018,4.67,15.018,17.485v53.629c0,13.592-9.84,16.894-13.957,16.894h-33.48V49.7l-9.598,59.979H64.406l-4.613-27.905
	l-4.73,27.905H37.139L22.852,21.671z M117.891,41.784c0-1.658-1.982-3.012-3.926-3.012V92.27c1.902,0,3.926-1.352,3.926-3.018
	V41.784z M159.438,56.708h-16.105v19.522h16.105V56.708z M264.312,91.728c0,7.261-6.154,18.096-22.609,18.096h-3.023
	c-14.586,0-21.219-8.502-22.387-15.492h-5.314v15.349h-20.635V94.331H162.92V76.373l25.277-54.702h22.781v54.29h5.049v-37.08
	c0-7.257,6.199-18.093,22.652-18.093h3.023c16.455,0,22.609,10.836,22.609,18.093V91.728z M237.746,93.153
	c0,1.372,1.109,2.484,2.482,2.484s2.48-1.112,2.48-2.484V37.544c0-1.374-1.107-2.488-2.48-2.488s-2.482,1.114-2.482,2.488V93.153z
	 M190.344,60.708h-0.389L182.396,75.8v0.162h7.947V60.708z"/>
<path fill="#666666" d="M262.881,104.779c0-2.893,2.346-5.029,5.119-5.029c2.748,0,5.094,2.136,5.094,5.029
	c0,2.92-2.346,5.053-5.094,5.053C265.227,109.832,262.881,107.699,262.881,104.779 M268,108.997c2.283,0,4.078-1.79,4.078-4.218
	c0-2.388-1.795-4.189-4.078-4.189c-2.305,0-4.107,1.801-4.107,4.189C263.893,107.207,265.695,108.997,268,108.997 M266.936,107.699
	h-0.887v-5.813h2.217c1.375,0,2.057,0.505,2.057,1.652c0,1.042-0.656,1.497-1.508,1.602l1.652,2.559h-0.988l-1.531-2.52h-1.012
	V107.699z M267.986,104.43c0.752,0,1.414-0.055,1.414-0.944c0-0.721-0.652-0.854-1.27-0.854h-1.195v1.798H267.986z"/>
</svg>
