<?xml version="1.0" encoding="utf-8"?>
<!-- Generator: Adobe Illustrator 15.1.0, SVG Export Plug-In  -->
<!DOCTYPE svg PUBLIC "-//W3C//DTD SVG 1.1//EN" "http://www.w3.org/Graphics/SVG/1.1/DTD/svg11.dtd" [
	<!ENTITY ns_flows "http://ns.adobe.com/Flows/1.0/">
]>
<svg version="1.1"
	 xmlns="http://www.w3.org/2000/svg" xmlns:xlink="http://www.w3.org/1999/xlink" xmlns:a="http://ns.adobe.com/AdobeSVGViewerExtensions/3.0/"
	 x="0px" y="0px" width="83px" height="83px" viewBox="0 -0.043 83 83" overflow="visible" enable-background="new 0 -0.043 83 83"
	 xml:space="preserve">
<defs>
</defs>
<path fill="#E31B23" d="M83,41.5C83,64.42,64.42,83,41.5,83S0,64.42,0,41.5S18.58,0,41.5,0S83,18.58,83,41.5z M41.5,4.427
	C21.024,4.427,4.427,21.024,4.427,41.5c0,20.477,16.598,37.073,37.073,37.073S78.573,61.977,78.573,41.5
	C78.573,21.024,61.976,4.427,41.5,4.427z"/>
<path fill="#FFFFFF" d="M41.548,55.574V41.01h6.744l0.612-4.905h-7.355v-2.453c0-1.354,1.096-2.451,2.453-2.451h4.903v-4.907h-4.903
	c-4.064,0-7.358,3.296-7.358,7.358v2.453h-3.68v4.905h3.68v14.564H41.548z"/>
</svg>
