<?xml version="1.0" encoding="utf-8"?>
<!-- Generator: Adobe Illustrator 15.1.0, SVG Export Plug-In  -->
<!DOCTYPE svg PUBLIC "-//W3C//DTD SVG 1.1//EN" "http://www.w3.org/Graphics/SVG/1.1/DTD/svg11.dtd" [
	<!ENTITY ns_flows "http://ns.adobe.com/Flows/1.0/">
]>
<svg version="1.1"
	 xmlns="http://www.w3.org/2000/svg" xmlns:xlink="http://www.w3.org/1999/xlink" xmlns:a="http://ns.adobe.com/AdobeSVGViewerExtensions/3.0/"
	 x="0px" y="0px" width="83px" height="83px" viewBox="0 -0.043 83 83" overflow="visible" enable-background="new 0 -0.043 83 83"
	 xml:space="preserve">
<defs>
</defs>
<path fill="#E31B23" d="M83,41.5C83,64.42,64.42,83,41.5,83S0,64.42,0,41.5S18.58,0,41.5,0S83,18.58,83,41.5z M41.5,4.427
	C21.024,4.427,4.427,21.024,4.427,41.5c0,20.477,16.598,37.073,37.073,37.073S78.573,61.977,78.573,41.5
	C78.573,21.024,61.976,4.427,41.5,4.427z"/>
<path fill="#FFFFFF" d="M38.072,43.75c0-1.707,3.755-2.201,3.755-6.215c0-2.406-0.223-3.857-2.117-4.711
	c0-0.6,3.346-0.207,3.346-1.32c-0.578,0-7.329,0-7.329,0s-7.42,0.181-7.42,6.463c0,6.283,6.487,5.555,6.487,5.555s0,0.953,0,1.595
	s0.871,0.426,0.979,1.729c-0.438,0-9.014-0.226-9.014,5.466c0,5.688,7.557,5.414,7.557,5.414s8.74,0.4,8.74-6.667
	C43.056,46.822,38.072,45.455,38.072,43.75z M31.741,38.332c-0.687-2.525,0.215-4.965,2.019-5.455c1.8-0.49,3.819,1.156,4.505,3.678
	c0.688,2.525-0.219,4.969-2.019,5.459C34.442,42.506,32.426,40.854,31.741,38.332z M35.493,55.91
	c-3.026,0.205-5.598-1.42-5.748-3.627c-0.148-2.207,2.182-4.16,5.206-4.365c3.026-0.206,5.602,1.418,5.75,3.625
	C40.852,53.75,38.518,55.703,35.493,55.91z"/>
<polygon fill="#FFFFFF" points="56.809,36.604 56.809,38.106 51.706,38.106 51.706,43.201 50.203,43.201 50.203,38.106 
	45.106,38.106 45.106,36.604 50.203,36.604 50.203,31.501 51.706,31.501 51.706,36.604 "/>
</svg>
