<?xml version="1.0" encoding="utf-8"?>
<!-- Generator: Adobe Illustrator 15.1.0, SVG Export Plug-In  -->
<!DOCTYPE svg PUBLIC "-//W3C//DTD SVG 1.1//EN" "http://www.w3.org/Graphics/SVG/1.1/DTD/svg11.dtd" [
	<!ENTITY ns_flows "http://ns.adobe.com/Flows/1.0/">
]>
<svg version="1.1"
	 xmlns="http://www.w3.org/2000/svg" xmlns:xlink="http://www.w3.org/1999/xlink" xmlns:a="http://ns.adobe.com/AdobeSVGViewerExtensions/3.0/"
	 x="0px" y="0px" width="83px" height="83px" viewBox="0 0 83 83" overflow="visible" enable-background="new 0 0 83 83"
	 xml:space="preserve">
<defs>
</defs>
<path fill="#E31B23" d="M83,41.5C83,64.42,64.42,83,41.5,83S0,64.42,0,41.5S18.58,0,41.5,0S83,18.58,83,41.5z M41.5,4.427
	C21.024,4.427,4.427,21.024,4.427,41.5c0,20.477,16.598,37.073,37.073,37.073S78.573,61.977,78.573,41.5
	C78.573,21.024,61.976,4.427,41.5,4.427z"/>
<path fill="#FFFFFF" d="M27.944,34.444h5.567v17.919h-5.567V34.444z M30.729,25.54c1.781,0,3.228,1.445,3.228,3.227
	c0,1.783-1.446,3.229-3.228,3.229c-1.784,0-3.229-1.445-3.229-3.229C27.499,26.985,28.944,25.54,30.729,25.54"/>
<path fill="#FFFFFF" d="M37.004,34.444h5.342v2.448h0.074c0.742-1.41,2.559-2.894,5.268-2.894c5.64,0,6.682,3.711,6.682,8.533v9.831
	h-5.564v-8.715c0-2.077-0.039-4.751-2.895-4.751c-2.898,0-3.343,2.265-3.343,4.6v8.866h-5.563V34.444z"/>
</svg>
