<?xml version="1.0" encoding="utf-8"?>
<!-- Generator: Adobe Illustrator 15.1.0, SVG Export Plug-In  -->
<!DOCTYPE svg PUBLIC "-//W3C//DTD SVG 1.1//EN" "http://www.w3.org/Graphics/SVG/1.1/DTD/svg11.dtd" [
	<!ENTITY ns_flows "http://ns.adobe.com/Flows/1.0/">
]>
<svg version="1.1"
	 xmlns="http://www.w3.org/2000/svg" xmlns:xlink="http://www.w3.org/1999/xlink" xmlns:a="http://ns.adobe.com/AdobeSVGViewerExtensions/3.0/"
	 x="0px" y="0px" width="83px" height="83px" viewBox="-0.001 -0.043 83 83"
	 overflow="visible" enable-background="new -0.001 -0.043 83 83" xml:space="preserve">
<defs>
</defs>
<path fill="#E31B23" d="M83,41.5C83,64.42,64.42,83,41.5,83S0,64.42,0,41.5S18.58,0,41.5,0S83,18.58,83,41.5z M41.5,4.427
	C21.024,4.427,4.427,21.024,4.427,41.5c0,20.477,16.598,37.073,37.073,37.073S78.573,61.977,78.573,41.5
	C78.573,21.024,61.976,4.427,41.5,4.427z"/>
<path fill="#FFFFFF" d="M41.666,26.472c-8.512,0-12.805,6.104-12.805,11.192c0,3.079,1.17,5.821,3.671,6.843
	c0.409,0.166,0.777,0.007,0.896-0.447c0.084-0.316,0.277-1.109,0.365-1.439c0.119-0.447,0.074-0.605-0.258-0.996
	c-0.719-0.852-1.182-1.953-1.182-3.513c0-4.528,3.387-8.581,8.819-8.581c4.812,0,7.456,2.938,7.456,6.865
	c0,5.165-2.289,9.525-5.68,9.525c-1.877,0-3.277-1.551-2.828-3.452c0.539-2.271,1.582-4.718,1.582-6.355
	c0-1.467-0.788-2.69-2.417-2.69c-1.915,0-3.453,1.983-3.453,4.638c0,1.689,0.57,2.834,0.57,2.834s-1.962,8.308-2.308,9.76
	c-0.682,2.901-0.1,6.45-0.051,6.808c0.027,0.213,0.302,0.266,0.424,0.105c0.177-0.231,2.46-3.048,3.237-5.861
	c0.22-0.797,1.261-4.928,1.261-4.928c0.619,1.188,2.439,2.236,4.373,2.236c5.762,0,9.669-5.254,9.669-12.279
	C53.009,31.423,48.506,26.472,41.666,26.472z"/>
</svg>
