<?xml version="1.0" encoding="utf-8"?>
<!-- Generator: Adobe Illustrator 15.1.0, SVG Export Plug-In  -->
<!DOCTYPE svg PUBLIC "-//W3C//DTD SVG 1.1//EN" "http://www.w3.org/Graphics/SVG/1.1/DTD/svg11.dtd" [
	<!ENTITY ns_flows "http://ns.adobe.com/Flows/1.0/">
]>
<svg version="1.1"
	 xmlns="http://www.w3.org/2000/svg" xmlns:xlink="http://www.w3.org/1999/xlink" xmlns:a="http://ns.adobe.com/AdobeSVGViewerExtensions/3.0/"
	 x="0px" y="0px" width="83px" height="83px" viewBox="0 0 83 83" overflow="visible" enable-background="new 0 0 83 83"
	 xml:space="preserve">
<defs>
</defs>
<path fill="#E31B23" d="M83,41.5C83,64.42,64.42,83,41.5,83S0,64.42,0,41.5S18.58,0,41.5,0S83,18.58,83,41.5z M41.5,4.428
	C21.024,4.428,4.427,21.025,4.427,41.5c0,20.477,16.598,37.074,37.073,37.074S78.573,61.977,78.573,41.5
	C78.573,21.025,61.976,4.428,41.5,4.428z"/>
<path fill="#FFFFFF" d="M57.164,33.592c-1.172,0.522-2.434,0.871-3.757,1.031c1.352-0.811,2.388-2.094,2.875-3.622
	c-1.263,0.751-2.664,1.294-4.156,1.587c-1.19-1.271-2.893-2.064-4.776-2.064c-3.612,0-6.542,2.93-6.542,6.544
	c0,0.512,0.056,1.013,0.168,1.493c-5.437-0.276-10.258-2.881-13.485-6.84c-0.566,0.967-0.888,2.092-0.888,3.289
	c0,2.27,1.155,4.273,2.911,5.448c-1.074-0.037-2.082-0.33-2.963-0.818c-0.001,0.024-0.001,0.054-0.001,0.08
	c0,3.173,2.256,5.819,5.25,6.418c-0.549,0.147-1.128,0.228-1.726,0.228c-0.422,0-0.832-0.041-1.232-0.116
	c0.834,2.6,3.251,4.49,6.115,4.546c-2.241,1.754-5.062,2.8-8.128,2.8c-0.526,0-1.048-0.031-1.559-0.091
	c2.895,1.856,6.335,2.939,10.029,2.939c12.037,0,18.618-9.972,18.618-18.619c0-0.283-0.005-0.566-0.019-0.846
	C55.178,36.057,56.287,34.904,57.164,33.592z"/>
</svg>
