<?xml version="1.0" encoding="utf-8"?>
<!-- Generator: Adobe Illustrator 15.1.0, SVG Export Plug-In  -->
<!DOCTYPE svg PUBLIC "-//W3C//DTD SVG 1.1//EN" "http://www.w3.org/Graphics/SVG/1.1/DTD/svg11.dtd" [
	<!ENTITY ns_flows "http://ns.adobe.com/Flows/1.0/">
]>
<svg version="1.1"
	 xmlns="http://www.w3.org/2000/svg" xmlns:xlink="http://www.w3.org/1999/xlink" xmlns:a="http://ns.adobe.com/AdobeSVGViewerExtensions/3.0/"
	 x="0px" y="0px" width="83px" height="83px" viewBox="-0.002 -0.043 83 83"
	 overflow="visible" enable-background="new -0.002 -0.043 83 83" xml:space="preserve">
<defs>
</defs>
<path fill="#E31B23" d="M83,41.5C83,64.42,64.42,83,41.5,83S0,64.42,0,41.5S18.58,0,41.5,0S83,18.58,83,41.5z M41.5,4.427
	C21.024,4.427,4.427,21.024,4.427,41.5c0,20.477,16.598,37.073,37.073,37.073S78.573,61.977,78.573,41.5
	C78.573,21.024,61.976,4.427,41.5,4.427z"/>
<path fill="#FFFFFF" d="M27.674,25.042h2.808l1.809,5.566h0.174l1.726-5.566h2.83l-3.244,8.145v5.778H30.99v-5.518L27.674,25.042z"
	/>
<path fill="#FFFFFF" d="M37.317,31.038c0-0.815,0.336-1.467,1.007-1.952s1.572-0.728,2.706-0.728c1.033,0,1.878,0.257,2.537,0.768
	c0.659,0.513,0.989,1.167,0.989,1.972v5.45c0,0.903-0.324,1.61-0.97,2.124c-0.645,0.516-1.534,0.771-2.667,0.771
	c-1.092,0-1.965-0.265-2.619-0.795c-0.654-0.531-0.982-1.244-0.982-2.141V31.038z M39.883,36.705c0,0.291,0.089,0.514,0.267,0.674
	c0.177,0.158,0.432,0.238,0.759,0.238c0.34,0,0.607-0.082,0.807-0.244c0.198-0.162,0.299-0.384,0.299-0.668v-5.746
	c0-0.23-0.103-0.416-0.305-0.559c-0.204-0.143-0.47-0.213-0.801-0.213c-0.301,0-0.549,0.07-0.74,0.213
	c-0.19,0.143-0.286,0.328-0.286,0.559V36.705z"/>
<path fill="#FFFFFF" d="M53.678,28.528V39.08H51.18v-1.165c-0.461,0.431-0.94,0.755-1.438,0.981
	c-0.499,0.223-0.982,0.336-1.45,0.336c-0.577,0-1.013-0.156-1.306-0.469c-0.293-0.316-0.439-0.787-0.439-1.416v-8.819h2.499v8.088
	c0,0.251,0.052,0.432,0.156,0.546c0.106,0.111,0.274,0.167,0.51,0.167c0.185,0,0.416-0.076,0.696-0.223
	c0.281-0.147,0.539-0.338,0.772-0.569v-8.009H53.678z"/>
<path fill="#FFFFFF" d="M55.542,44.107c0-1.828-1.88-3.312-4.195-3.312c-3.303-0.111-6.683-0.16-10.13-0.153
	c-3.448-0.007-6.828,0.042-10.134,0.153c-2.313,0-4.192,1.484-4.192,3.312c-0.139,1.447-0.199,2.895-0.194,4.342
	c-0.005,1.447,0.055,2.896,0.194,4.344c0,1.828,1.879,3.311,4.192,3.311c3.306,0.111,6.686,0.16,10.134,0.154
	c3.447,0.006,6.827-0.043,10.13-0.154c2.315,0,4.195-1.482,4.195-3.311c0.138-1.447,0.198-2.896,0.193-4.344
	C55.74,47.002,55.679,45.555,55.542,44.107z"/>
<path d="M35.036,43.062h-6.088v1.488h2.052v8.773h1.984v-8.773h2.053V43.062z M38.279,51.5c-0.166,0.165-0.347,0.302-0.546,0.407
	c-0.198,0.106-0.361,0.159-0.491,0.159c-0.164,0-0.283-0.041-0.357-0.12s-0.111-0.21-0.111-0.391v-5.803h-1.762v6.329
	c0,0.451,0.104,0.787,0.311,1.015c0.207,0.224,0.514,0.338,0.921,0.338c0.329,0,0.671-0.081,1.022-0.242
	c0.352-0.163,0.688-0.396,1.014-0.704v0.836h1.761v-7.571h-1.761V51.5z M45.105,45.658c-0.274,0-0.543,0.059-0.812,0.182
	c-0.265,0.119-0.519,0.295-0.755,0.527v-3.305H41.76v10.262h1.778v-0.582c0.23,0.23,0.482,0.402,0.752,0.512
	c0.27,0.109,0.576,0.166,0.921,0.166c0.522,0,0.921-0.143,1.198-0.428c0.277-0.286,0.414-0.699,0.414-1.236v-4.199
	c0-0.619-0.147-1.09-0.441-1.412C46.088,45.821,45.663,45.658,45.105,45.658z M45.009,51.549c0,0.242-0.05,0.418-0.152,0.521
	c-0.102,0.107-0.259,0.16-0.475,0.16c-0.15,0-0.292-0.026-0.426-0.08c-0.136-0.056-0.274-0.143-0.418-0.268v-4.717
	c0.12-0.105,0.24-0.182,0.363-0.231c0.121-0.048,0.247-0.074,0.372-0.074c0.24,0,0.423,0.067,0.548,0.198
	c0.125,0.134,0.188,0.327,0.188,0.582V51.549z M53.333,49.718v-1.93c0-0.716-0.215-1.267-0.649-1.651
	c-0.432-0.383-1.05-0.574-1.858-0.574c-0.787,0-1.432,0.207-1.928,0.621c-0.498,0.414-0.747,0.949-0.747,1.604v3.399
	c0,0.727,0.228,1.301,0.679,1.717c0.454,0.416,1.076,0.623,1.864,0.623c0.876,0,1.536-0.194,1.977-0.588
	c0.441-0.393,0.662-0.978,0.662-1.752v-0.568H51.52v0.525c0,0.445-0.059,0.734-0.173,0.863c-0.117,0.131-0.32,0.196-0.612,0.196
	c-0.282,0-0.481-0.077-0.595-0.229c-0.118-0.156-0.176-0.432-0.176-0.83v-1.427H53.333z M49.963,47.777
	c0-0.317,0.062-0.546,0.184-0.684c0.124-0.136,0.323-0.205,0.605-0.205c0.268,0,0.462,0.069,0.584,0.205
	c0.123,0.138,0.183,0.366,0.183,0.684v0.766h-1.557V47.777z"/>
<path d="M35.036,43.174h-6.088v1.486h2.052v8.774h1.984V44.66h2.053V43.174z M38.279,51.608c-0.166,0.165-0.347,0.304-0.546,0.407
	c-0.198,0.107-0.361,0.16-0.491,0.16c-0.164,0-0.283-0.04-0.357-0.118c-0.074-0.081-0.111-0.212-0.111-0.393v-5.801h-1.762v6.327
	c0,0.451,0.104,0.789,0.311,1.013c0.207,0.227,0.514,0.34,0.921,0.34c0.329,0,0.671-0.081,1.022-0.243
	c0.352-0.162,0.688-0.395,1.014-0.701v0.835h1.761v-7.57h-1.761V51.608z M45.105,45.768c-0.274,0-0.543,0.06-0.812,0.182
	c-0.265,0.119-0.519,0.293-0.755,0.527v-3.303H41.76v10.261h1.778v-0.583c0.23,0.23,0.482,0.402,0.752,0.512
	c0.27,0.108,0.576,0.164,0.921,0.164c0.522,0,0.921-0.141,1.198-0.426s0.414-0.697,0.414-1.236v-4.201
	c0-0.617-0.147-1.088-0.441-1.41C46.088,45.93,45.663,45.768,45.105,45.768z M45.009,51.658c0,0.242-0.05,0.416-0.152,0.523
	c-0.102,0.105-0.259,0.158-0.475,0.158c-0.15,0-0.292-0.026-0.426-0.082c-0.136-0.054-0.274-0.141-0.418-0.264v-4.719
	c0.12-0.104,0.24-0.182,0.363-0.231c0.121-0.049,0.247-0.074,0.372-0.074c0.24,0,0.423,0.067,0.548,0.2s0.188,0.327,0.188,0.581
	V51.658z M53.333,49.826v-1.929c0-0.716-0.215-1.267-0.649-1.651c-0.432-0.382-1.05-0.572-1.858-0.572
	c-0.787,0-1.432,0.206-1.928,0.619c-0.498,0.414-0.747,0.949-0.747,1.604v3.399c0,0.728,0.228,1.301,0.679,1.717
	c0.454,0.417,1.076,0.625,1.864,0.625c0.876,0,1.536-0.197,1.977-0.588c0.441-0.393,0.662-0.979,0.662-1.754v-0.568H51.52v0.525
	c0,0.445-0.059,0.734-0.173,0.863c-0.117,0.131-0.32,0.196-0.612,0.196c-0.282,0-0.481-0.077-0.595-0.231
	c-0.118-0.154-0.176-0.431-0.176-0.828v-1.428H53.333z M49.963,47.885c0-0.317,0.062-0.545,0.184-0.682
	c0.124-0.138,0.323-0.205,0.605-0.205c0.268,0,0.462,0.067,0.584,0.205c0.123,0.137,0.183,0.364,0.183,0.682v0.766h-1.557V47.885z"
	/>
</svg>
